# xmcd
#
# Track frame offsets:
#	183
#	24228
#	41310
#	63578
#	81265
#	103300
#	125318
#	144143
#
# Disc length: 2138 seconds
#
# Revision: 1
# Processed by: cddbd v1.5.2PL0 Copyright (c) Steve Scherf et al.
# Submitted via: audiograbber 1.83.01
#
DISCID=60085808
DTITLE=Tatiana Miath - Hey girl
DYEAR=1990
DGENRE=Zouk
TTITLE0=La vi
TTITLE1=On ti dousè
TTITLE2=Koméraj'
TTITLE3=Mami
TTITLE4=Hey girl
TTITLE5=Man Estrazel
TTITLE6=Es ou sav'
TTITLE7=0n ti dousè
EXTD=
EXTT0=
EXTT1=
EXTT2=
EXTT3=
EXTT4=
EXTT5=
EXTT6=
EXTT7=
PLAYORDER=
